<svg id="openai-horizontal" xmlns="http://www.w3.org/2000/svg" viewBox="0 0 120 29.53"><path d="M 84.7 10.7 c 1.3 -3.4 0.9 -7.2 -1.3 -10.3 c -3.2 -4.8 -9.6 -7.3 -15.9 -6.1 C 64.7 -8.5 60.7 -10 56.5 -10 c -6.4 0 -12.1 3.6 -14.1 8.8 c -4.1 0.7 -7.7 3 -9.8 6.1 c -3.2 4.8 -2.5 10.8 1.8 14.9 c -1.3 3.4 -0.9 7.2 1.3 10.3 c 3.2 4.8 9.6 7.3 15.9 6.1 c 2.8 2.7 6.8 4.3 11 4.2 c 6.4 0 12.1 -3.6 14.1 -8.8 c 4.1 -0.7 7.7 -3 9.8 -6.1 c 3.2 -4.8 2.5 -10.8 -1.8 -14.9 Z m -4.6 -8.7 c 1.3 1.9 1.7 4.2 1.3 6.3 c -0.1 -0.1 -0.2 -0.1 -0.3 -0.2 l -11.7 -5.8 c -0.6 -0.3 -1.3 -0.3 -1.9 0 l -13.7 6.8 v -5 l 11.3 -5.6 c 5.3 -2.6 12 -1.1 15 3.5 Z m -26.3 10.4 l 5.8 -2.9 l 5.8 2.9 v 5.7 l -5.8 2.9 l -5.8 -2.9 v -5.7 Z M 56.5 -6.7 c 2.6 0 5.1 0.8 7.1 2.2 c -0.1 0 -0.2 0.1 -0.4 0.2 l -11.7 5.8 c -0.6 0.3 -1 0.8 -1 1.4 v 13.6 l -5 -2.5 V 2.8 c 0 -5.2 4.9 -9.5 11 -9.5 Z M 35.9 6.6 h 0 c 1.3 -1.9 3.3 -3.4 5.7 -4.2 v 12 c 0 0.6 0.4 1.1 1 1.4 l 13.7 6.8 l -5 2.5 l -11.3 -5.6 c -5.2 -2.6 -7.1 -8.4 -4 -12.9 Z m 3.1 21.9 h 0 c -1.3 -1.9 -1.7 -4.2 -1.3 -6.3 c 0.1 0.1 0.2 0.1 0.3 0.2 l 11.7 5.8 c 0.6 0.3 1.3 0.3 1.9 0 l 13.7 -6.8 v 5 l -11.3 5.6 c -5.3 2.6 -12 1.1 -15 -3.5 Z m 23.6 8.7 c -2.6 0 -5.1 -0.8 -7 -2.2 c 0.1 0 0.3 -0.1 0.4 -0.2 l 11.7 -5.8 c 0.6 -0.3 1 -0.8 1 -1.4 v -13.6 l 5 2.5 v 11.2 c 0 5.2 -4.9 9.5 -11 9.5 Z m 20.6 -13.3 c -1.3 1.9 -3.3 3.4 -5.7 4.1 v -12 c 0 -0.6 -0.4 -1.1 -1 -1.4 h 0 l -13.7 -6.8 l 5 -2.5 l 11.3 5.6 c 5.3 2.6 7.1 8.4 4 12.9 Z"></path>
</svg>